<?xml version="1.0" encoding="UTF-8" standalone="no"?>
<!-- Created with Inkscape (http://www.inkscape.org/) -->

<svg
   xmlns:dc="http://purl.org/dc/elements/1.1/"
   xmlns:cc="http://creativecommons.org/ns#"
   xmlns:rdf="http://www.w3.org/1999/02/22-rdf-syntax-ns#"
   xmlns:svg="http://www.w3.org/2000/svg"
   xmlns="http://www.w3.org/2000/svg"
   xmlns:sodipodi="http://sodipodi.sourceforge.net/DTD/sodipodi-0.dtd"
   xmlns:inkscape="http://www.inkscape.org/namespaces/inkscape"
   version="1.1"
   id="svg29"
   xml:space="preserve"
   width="411.61331"
   height="117.06667"
   viewBox="0 0 411.61331 117.06666"
   sodipodi:docname="FacilitateTeamCohesion.svg"
   inkscape:version="0.92.1 r"><metadata
     id="metadata35"><rdf:RDF><cc:Work
         rdf:about=""><dc:format>image/svg+xml</dc:format><dc:type
           rdf:resource="http://purl.org/dc/dcmitype/StillImage" /><dc:title></dc:title></cc:Work></rdf:RDF></metadata><defs
     id="defs33"><clipPath
       clipPathUnits="userSpaceOnUse"
       id="clipPath45"><path
         d="M 0,595.276 H 419.528 V 0 H 0 Z"
         id="path43"
         inkscape:connector-curvature="0" /></clipPath></defs><sodipodi:namedview
     pagecolor="#ffffff"
     bordercolor="#666666"
     borderopacity="1"
     objecttolerance="10"
     gridtolerance="10"
     guidetolerance="10"
     inkscape:pageopacity="0"
     inkscape:pageshadow="2"
     inkscape:window-width="911"
     inkscape:window-height="787"
     id="namedview31"
     showgrid="false"
     inkscape:zoom="0.59594203"
     inkscape:cx="211.312"
     inkscape:cy="38.045331"
     inkscape:window-x="396"
     inkscape:window-y="64"
     inkscape:window-maximized="0"
     inkscape:current-layer="g37"
     fit-margin-top="0"
     fit-margin-left="0"
     fit-margin-right="0"
     fit-margin-bottom="0" /><g
     id="g37"
     inkscape:groupmode="layer"
     inkscape:label="FacilitateTeamCohesion"
     transform="matrix(1.3333333,0,0,-1.3333333,-68.373332,475.87199)"><g
       id="g39"><g
         id="g41"
         clip-path="url(#clipPath45)"><path
           d="m 77.971,354.904 c -13.615,0 -24.691,-11.076 -24.691,-24.692 v -34.417 c 0,-13.615 11.076,-24.691 24.691,-24.691 h 83.8 c 13.615,0 24.691,11.076 24.691,24.691 v 34.417 c 0,13.616 -11.076,24.692 -24.691,24.692 z"
           style="fill:none;stroke:#110f0d;stroke-width:4;stroke-linecap:butt;stroke-linejoin:miter;stroke-miterlimit:4;stroke-dasharray:none;stroke-opacity:1"
           id="path47"
           inkscape:connector-curvature="0" /><path
           d="m 175.239,295.795 c 0,-7.438 -6.03,-13.469 -13.468,-13.469 h -83.8 c -7.438,0 -13.468,6.031 -13.468,13.469 v 34.417 c 0,7.438 6.03,13.469 13.468,13.469 h 83.8 c 7.438,0 13.468,-6.031 13.468,-13.469 z"
           style="fill:none;stroke:#110f0d;stroke-width:4;stroke-linecap:butt;stroke-linejoin:miter;stroke-miterlimit:4;stroke-dasharray:none;stroke-opacity:1"
           id="path49"
           inkscape:connector-curvature="0" /><path
           d="m 249.5,354.904 c -13.615,0 -24.691,-11.076 -24.691,-24.692 v -34.417 c 0,-13.615 11.076,-24.691 24.691,-24.691 h 83.799 c 13.616,0 24.691,11.076 24.691,24.691 v 34.417 c 0,13.616 -11.075,24.692 -24.691,24.692 z"
           style="fill:none;stroke:#110f0d;stroke-width:4;stroke-linecap:butt;stroke-linejoin:miter;stroke-miterlimit:4;stroke-dasharray:none;stroke-opacity:1"
           id="path51"
           inkscape:connector-curvature="0" /><path
           d="m 346.767,295.795 c 0,-7.438 -6.029,-13.469 -13.468,-13.469 H 249.5 c -7.438,0 -13.469,6.031 -13.469,13.469 v 34.417 c 0,7.438 6.031,13.469 13.469,13.469 h 83.799 c 7.439,0 13.468,-6.031 13.468,-13.469 z"
           style="fill:none;stroke:#110f0d;stroke-width:4;stroke-linecap:butt;stroke-linejoin:miter;stroke-miterlimit:4;stroke-dasharray:none;stroke-opacity:1"
           id="path53"
           inkscape:connector-curvature="0" /><path
           d="m 274.19,318.458 c 0,-3.736 -4.499,-6.765 -10.051,-6.765 H 148.065 c -5.551,0 -10.05,3.029 -10.05,6.765 0,3.736 4.499,6.765 10.05,6.765 h 116.074 c 5.552,0 10.051,-3.029 10.051,-6.765 z"
           style="fill:none;stroke:#110f0d;stroke-width:4;stroke-linecap:butt;stroke-linejoin:miter;stroke-miterlimit:4;stroke-dasharray:none;stroke-opacity:1"
           id="path55"
           inkscape:connector-curvature="0" /></g></g></g></svg>