<?xml version="1.0" encoding="UTF-8" standalone="no"?>
<svg
   xmlns:dc="http://purl.org/dc/elements/1.1/"
   xmlns:cc="http://creativecommons.org/ns#"
   xmlns:rdf="http://www.w3.org/1999/02/22-rdf-syntax-ns#"
   xmlns:svg="http://www.w3.org/2000/svg"
   xmlns="http://www.w3.org/2000/svg"
   xmlns:sodipodi="http://sodipodi.sourceforge.net/DTD/sodipodi-0.dtd"
   xmlns:inkscape="http://www.inkscape.org/namespaces/inkscape"
   viewBox="0 0 304.49732 312.65732"
   height="312.65732"
   width="304.49731"
   xml:space="preserve"
   id="svg29"
   version="1.1"
   sodipodi:docname="OrganizeForComplexity.svg"
   inkscape:version="0.92.1 r"><sodipodi:namedview
     pagecolor="#ffffff"
     bordercolor="#666666"
     borderopacity="1"
     objecttolerance="10"
     gridtolerance="10"
     guidetolerance="10"
     inkscape:pageopacity="0"
     inkscape:pageshadow="2"
     inkscape:window-width="640"
     inkscape:window-height="480"
     id="namedview190"
     showgrid="false"
     fit-margin-top="0"
     fit-margin-left="0"
     fit-margin-right="0"
     fit-margin-bottom="0"
     inkscape:zoom="0.29734106"
     inkscape:cx="154.884"
     inkscape:cy="129.14399"
     inkscape:window-x="125"
     inkscape:window-y="70"
     inkscape:window-maximized="0"
     inkscape:current-layer="svg29" /><metadata
     id="metadata35"><rdf:RDF><cc:Work
         rdf:about=""><dc:format>image/svg+xml</dc:format><dc:type
           rdf:resource="http://purl.org/dc/dcmitype/StillImage" /><dc:title></dc:title></cc:Work></rdf:RDF></metadata><defs
     id="defs33"><clipPath
       id="clipPath45"
       clipPathUnits="userSpaceOnUse"><path
         id="path43"
         d="M 0,595.276 H 419.528 V 0 H 0 Z"
         inkscape:connector-curvature="0" /></clipPath></defs><g
     transform="matrix(1.3333333,0,0,-1.3333333,-124.80133,580.36399)"
     id="g37"><g
       id="g39"><g
         clip-path="url(#clipPath45)"
         id="g41"><path
           id="path47"
           style="fill:none;stroke:#110f0d;stroke-width:4;stroke-linecap:butt;stroke-linejoin:miter;stroke-miterlimit:4;stroke-dasharray:none;stroke-opacity:1"
           d="m 319.974,321.951 c 0,-59.947 -47.831,-108.543 -106.837,-108.543 -59.004,0 -106.837,48.596 -106.837,108.543 0,59.947 47.833,108.544 106.837,108.544 59.006,0 106.837,-48.597 106.837,-108.544 z"
           inkscape:connector-curvature="0" /><path
           id="path49"
           style="fill:none;stroke:#110f0d;stroke-width:4;stroke-linecap:butt;stroke-linejoin:miter;stroke-miterlimit:4;stroke-dasharray:none;stroke-opacity:1"
           d="m 124.05,268.703 c 0,83.769 60.456,151.552 135.167,151.552"
           inkscape:connector-curvature="0" /><path
           id="path51"
           style="fill:none;stroke:#110f0d;stroke-width:4;stroke-linecap:butt;stroke-linejoin:miter;stroke-miterlimit:4;stroke-dasharray:none;stroke-opacity:1"
           d="m 124.732,261.878 c 0,67.919 77.554,122.878 173.396,122.878"
           inkscape:connector-curvature="0" /><path
           id="path53"
           style="fill:none;stroke:#110f0d;stroke-width:4;stroke-linecap:butt;stroke-linejoin:miter;stroke-miterlimit:4;stroke-dasharray:none;stroke-opacity:1"
           d="m 114.081,342.498 c -19.38,13.494 103.74,-73.005 182.339,39.869"
           inkscape:connector-curvature="0" /><path
           id="path55"
           style="fill:none;stroke:#110f0d;stroke-width:4;stroke-linecap:butt;stroke-linejoin:miter;stroke-miterlimit:4;stroke-dasharray:none;stroke-opacity:1"
           d="m 220.305,212.727 c -17.067,40.959 -17.64,71.287 -7.51,104.446 13.978,45.757 58.447,67.583 85.333,67.583"
           inkscape:connector-curvature="0" /><path
           id="path57"
           style="fill:none;stroke:#110f0d;stroke-width:4;stroke-linecap:butt;stroke-linejoin:miter;stroke-miterlimit:4;stroke-dasharray:none;stroke-opacity:1"
           d="m 109.373,347.894 c 0,-54.334 83.318,-90.794 186.707,-90.794"
           inkscape:connector-curvature="0" /><path
           id="path59"
           style="fill:none;stroke:#110f0d;stroke-width:4;stroke-linecap:butt;stroke-linejoin:miter;stroke-miterlimit:4;stroke-dasharray:none;stroke-opacity:1"
           d="m 170.129,419.914 c 0,-87.54 58.534,-160.767 128.339,-160.767"
           inkscape:connector-curvature="0" /><path
           id="path61"
           style="fill:#110f0d;fill-opacity:1;fill-rule:nonzero;stroke:none"
           d="m 183.1,422.985 c 0,-6.785 -5.732,-12.287 -12.8,-12.287 -7.069,0 -12.8,5.502 -12.8,12.287 0,6.786 5.731,12.288 12.8,12.288 7.068,0 12.8,-5.502 12.8,-12.288"
           inkscape:connector-curvature="0" /><path
           id="path63"
           style="fill:#110f0d;fill-opacity:1;fill-rule:nonzero;stroke:none"
           d="m 265.019,421.961 c 0,-6.785 -5.733,-12.287 -12.8,-12.287 -7.069,0 -12.8,5.502 -12.8,12.287 0,6.787 5.731,12.289 12.8,12.289 7.067,0 12.8,-5.502 12.8,-12.289"
           inkscape:connector-curvature="0" /><path
           id="path65"
           style="fill:#110f0d;fill-opacity:1;fill-rule:nonzero;stroke:none"
           d="m 311.098,384.074 c 0,-6.786 -5.732,-12.288 -12.8,-12.288 -7.068,0 -12.8,5.502 -12.8,12.288 0,6.786 5.732,12.288 12.8,12.288 7.068,0 12.8,-5.502 12.8,-12.288"
           inkscape:connector-curvature="0" /><path
           id="path67"
           style="fill:#110f0d;fill-opacity:1;fill-rule:nonzero;stroke:none"
           d="m 310.074,259.147 c 0,-6.786 -5.732,-12.288 -12.8,-12.288 -7.068,0 -12.799,5.502 -12.799,12.288 0,6.787 5.731,12.289 12.799,12.289 7.068,0 12.8,-5.502 12.8,-12.289"
           inkscape:connector-curvature="0" /><path
           id="path69"
           style="fill:#110f0d;fill-opacity:1;fill-rule:nonzero;stroke:none"
           d="m 119.2,341.474 c 0,-6.786 -5.732,-12.288 -12.8,-12.288 -7.067,0 -12.799,5.502 -12.799,12.288 0,6.786 5.732,12.287 12.799,12.287 7.068,0 12.8,-5.501 12.8,-12.287"
           inkscape:connector-curvature="0" /><path
           id="path71"
           style="fill:#110f0d;fill-opacity:1;fill-rule:nonzero;stroke:none"
           d="m 132.924,261.195 c 0,-6.786 -5.732,-12.287 -12.8,-12.287 -7.068,0 -12.8,5.501 -12.8,12.287 0,6.786 5.732,12.288 12.8,12.288 7.068,0 12.8,-5.502 12.8,-12.288"
           inkscape:connector-curvature="0" /><path
           id="path73"
           style="fill:#110f0d;fill-opacity:1;fill-rule:nonzero;stroke:none"
           d="m 232.251,213.068 c 0,-6.786 -5.732,-12.288 -12.8,-12.288 -7.068,0 -12.8,5.502 -12.8,12.288 0,6.786 5.732,12.288 12.8,12.288 7.068,0 12.8,-5.502 12.8,-12.288"
           inkscape:connector-curvature="0" /><path
           id="path75"
           style="fill:#110f0d;fill-opacity:1;fill-rule:nonzero;stroke:none"
           d="m 223.035,304.203 c 0,-6.786 -5.732,-12.288 -12.8,-12.288 -7.068,0 -12.799,5.502 -12.799,12.288 0,6.786 5.731,12.288 12.799,12.288 7.068,0 12.8,-5.502 12.8,-12.288"
           inkscape:connector-curvature="0" /><path
           id="path77"
           style="fill:#110f0d;fill-opacity:1;fill-rule:nonzero;stroke:none"
           d="m 186.172,385.098 c 0,-6.786 -5.733,-12.288 -12.8,-12.288 -7.068,0 -12.8,5.502 -12.8,12.288 0,6.786 5.732,12.288 12.8,12.288 7.067,0 12.8,-5.502 12.8,-12.288"
           inkscape:connector-curvature="0" /><path
           id="path79"
           style="fill:#110f0d;fill-opacity:1;fill-rule:nonzero;stroke:none"
           d="m 218.939,267.34 c 0,-6.786 -5.732,-12.288 -12.799,-12.288 -7.069,0 -12.8,5.502 -12.8,12.288 0,6.785 5.731,12.287 12.8,12.287 7.067,0 12.799,-5.502 12.799,-12.287"
           inkscape:connector-curvature="0" /><path
           id="path81"
           style="fill:#110f0d;fill-opacity:1;fill-rule:nonzero;stroke:none"
           d="m 207.675,326.73 c 0,-6.785 -5.732,-12.287 -12.8,-12.287 -7.067,0 -12.8,5.502 -12.8,12.287 0,6.787 5.733,12.289 12.8,12.289 7.068,0 12.8,-5.502 12.8,-12.289"
           inkscape:connector-curvature="0" /><path
           id="path83"
           style="fill:#110f0d;fill-opacity:1;fill-rule:nonzero;stroke:none"
           d="m 194.363,352.331 c 0,-6.787 -5.731,-12.289 -12.8,-12.289 -7.067,0 -12.799,5.502 -12.799,12.289 0,6.785 5.732,12.287 12.799,12.287 7.069,0 12.8,-5.502 12.8,-12.287"
           inkscape:connector-curvature="0" /><path
           id="path85"
           style="fill:#110f0d;fill-opacity:1;fill-rule:nonzero;stroke:none"
           d="m 164.668,327.755 c 0,-6.786 -5.732,-12.288 -12.8,-12.288 -7.068,0 -12.8,5.502 -12.8,12.288 0,6.786 5.732,12.287 12.8,12.287 7.068,0 12.8,-5.501 12.8,-12.287"
           inkscape:connector-curvature="0" /><path
           id="path87"
           style="fill:#110f0d;fill-opacity:1;fill-rule:nonzero;stroke:none"
           d="m 149.308,335.947 c 0,-6.786 -5.732,-12.288 -12.8,-12.288 -7.068,0 -12.8,5.502 -12.8,12.288 0,6.785 5.732,12.287 12.8,12.287 7.068,0 12.8,-5.502 12.8,-12.287"
           inkscape:connector-curvature="0" /><path
           id="path89"
           style="fill:#110f0d;fill-opacity:1;fill-rule:nonzero;stroke:none"
           d="m 142.14,299.083 c 0,-6.786 -5.732,-12.288 -12.8,-12.288 -7.068,0 -12.799,5.502 -12.799,12.288 0,6.786 5.731,12.288 12.799,12.288 7.068,0 12.8,-5.502 12.8,-12.288"
           inkscape:connector-curvature="0" /></g></g></g></svg>