<?xml version="1.0" encoding="UTF-8" standalone="no"?>
<svg
   xmlns:dc="http://purl.org/dc/elements/1.1/"
   xmlns:cc="http://creativecommons.org/ns#"
   xmlns:rdf="http://www.w3.org/1999/02/22-rdf-syntax-ns#"
   xmlns:svg="http://www.w3.org/2000/svg"
   xmlns="http://www.w3.org/2000/svg"
   xmlns:sodipodi="http://sodipodi.sourceforge.net/DTD/sodipodi-0.dtd"
   xmlns:inkscape="http://www.inkscape.org/namespaces/inkscape"
   viewBox="0 0 333.97513 298.46054"
   height="298.46054"
   width="333.97513"
   xml:space="preserve"
   id="svg29"
   version="1.1"
   sodipodi:docname="PrototypeTeamIdentity.svg"
   inkscape:version="0.92.1 r"><sodipodi:namedview
     pagecolor="#ffffff"
     bordercolor="#666666"
     borderopacity="1"
     objecttolerance="10"
     gridtolerance="10"
     guidetolerance="10"
     inkscape:pageopacity="0"
     inkscape:pageshadow="2"
     inkscape:window-width="640"
     inkscape:window-height="480"
     id="namedview129"
     showgrid="false"
     fit-margin-top="0"
     fit-margin-left="0"
     fit-margin-right="0"
     fit-margin-bottom="0"
     inkscape:zoom="0.59594203"
     inkscape:cx="190.37348"
     inkscape:cy="161.02265"
     inkscape:window-x="0"
     inkscape:window-y="23"
     inkscape:window-maximized="0"
     inkscape:current-layer="svg29" /><metadata
     id="metadata35"><rdf:RDF><cc:Work
         rdf:about=""><dc:format>image/svg+xml</dc:format><dc:type
           rdf:resource="http://purl.org/dc/dcmitype/StillImage" /><dc:title></dc:title></cc:Work></rdf:RDF></metadata><defs
     id="defs33"><clipPath
       id="clipPath45"
       clipPathUnits="userSpaceOnUse"><path
         id="path43"
         d="M 0,595.276 H 419.528 V 0 H 0 Z"
         inkscape:connector-curvature="0" /></clipPath></defs><g
     transform="matrix(1.3333333,0,0,-1.3333333,-89.311856,534.28854)"
     id="g37"><g
       id="g39"><g
         clip-path="url(#clipPath45)"
         id="g41"><path
           id="path47"
           style="fill:#110f0d;fill-opacity:1;fill-rule:nonzero;stroke:none"
           d="m 72.471,287.271 c 5.557,-1.056 15.526,34.065 15.526,34.065 0,0 18.185,-32.413 23.598,-31.633 5.413,0.781 -19.181,50.535 -19.181,50.535 0,0 12.032,-11.995 19.682,-9.83 7.651,2.165 -19.785,27.452 -19.785,27.452 0,0 -4.47,2.571 -8.642,-1.318 -8.073,-7.523 -18.376,-24.386 -16.45,-26.813 2.919,-3.681 14.906,5.72 14.906,5.72 0,0 -15.211,-47.12 -9.654,-48.178"
           inkscape:connector-curvature="0" /><path
           id="path49"
           style="fill:#110f0d;fill-opacity:1;fill-rule:nonzero;stroke:none"
           d="m 94.673,369.421 c 1.141,-4.033 -1.359,-8.271 -5.584,-9.467 -4.225,-1.196 -8.575,1.105 -9.717,5.138 -1.141,4.033 1.359,8.272 5.584,9.468 4.225,1.194 8.575,-1.106 9.717,-5.139"
           inkscape:connector-curvature="0" /><path
           id="path51"
           style="fill:#110f0d;fill-opacity:1;fill-rule:nonzero;stroke:none"
           d="m 272.283,314.939 c 5.426,-1.596 18.785,32.38 18.785,32.38 0,0 14.926,-34.037 20.388,-33.79 5.465,0.247 -14.143,52.169 -14.143,52.169 0,0 10.801,-13.115 18.627,-11.709 7.825,1.406 -17.005,29.258 -17.005,29.258 0,0 -4.194,2.995 -8.728,-0.467 -8.77,-6.696 -20.674,-22.47 -18.996,-25.075 2.546,-3.948 15.394,4.234 15.394,4.234 0,0 -19.749,-45.405 -14.322,-47"
           inkscape:connector-curvature="0" /><path
           id="path53"
           style="fill:#110f0d;fill-opacity:1;fill-rule:nonzero;stroke:none"
           d="m 302.418,394.521 c 0.741,-4.126 -2.162,-8.1 -6.483,-8.875 -4.322,-0.777 -8.425,1.938 -9.166,6.063 -0.742,4.125 2.161,8.099 6.483,8.875 4.321,0.776 8.425,-1.938 9.166,-6.063"
           inkscape:connector-curvature="0" /><path
           id="path55"
           style="fill:#110f0d;fill-opacity:1;fill-rule:nonzero;stroke:none"
           d="m 201.985,176.898 c 5.542,-1.134 16.005,33.842 16.005,33.842 0,0 17.726,-32.668 23.15,-31.963 5.423,0.703 -18.467,50.801 -18.467,50.801 0,0 11.862,-12.164 19.542,-10.107 7.68,2.054 -19.397,27.728 -19.397,27.728 0,0 -4.431,2.635 -8.658,-1.195 -8.18,-7.408 -18.718,-24.125 -16.827,-26.578 2.866,-3.723 14.986,5.508 14.986,5.508 0,0 -15.875,-46.901 -10.334,-48.036"
           inkscape:connector-curvature="0" /><path
           id="path57"
           style="fill:#110f0d;fill-opacity:1;fill-rule:nonzero;stroke:none"
           d="m 225.344,258.727 c 1.084,-4.049 -1.476,-8.252 -5.717,-9.389 -4.241,-1.135 -8.56,1.226 -9.644,5.275 -1.083,4.049 1.477,8.252 5.718,9.389 4.241,1.135 8.559,-1.228 9.643,-5.275"
           inkscape:connector-curvature="0" /><path
           id="path59"
           style="fill:none;stroke:#110f0d;stroke-width:4;stroke-linecap:butt;stroke-linejoin:miter;stroke-miterlimit:4;stroke-dasharray:none;stroke-opacity:1"
           d="M 117.683,293.594 200.08,238.662"
           inkscape:connector-curvature="0" /><path
           id="path61"
           style="fill:none;stroke:#110f0d;stroke-width:4;stroke-linecap:butt;stroke-linejoin:miter;stroke-miterlimit:4;stroke-dasharray:none;stroke-opacity:1"
           d="m 118.405,337.322 149.979,27.466"
           inkscape:connector-curvature="0" /><path
           id="path63"
           style="fill:none;stroke:#110f0d;stroke-width:4;stroke-linecap:butt;stroke-linejoin:miter;stroke-miterlimit:4;stroke-dasharray:none;stroke-opacity:1"
           d="M 239.834,237.217 288.622,316"
           inkscape:connector-curvature="0" /></g></g></g></svg>