<?xml version="1.0" encoding="UTF-8" standalone="no"?>
<!-- Generator: Adobe Illustrator 20.0.0, SVG Export Plug-In . SVG Version: 6.00 Build 0)  -->

<svg
   xmlns:dc="http://purl.org/dc/elements/1.1/"
   xmlns:cc="http://creativecommons.org/ns#"
   xmlns:rdf="http://www.w3.org/1999/02/22-rdf-syntax-ns#"
   xmlns:svg="http://www.w3.org/2000/svg"
   xmlns="http://www.w3.org/2000/svg"
   xmlns:xlink="http://www.w3.org/1999/xlink"
   xmlns:sodipodi="http://sodipodi.sourceforge.net/DTD/sodipodi-0.dtd"
   xmlns:inkscape="http://www.inkscape.org/namespaces/inkscape"
   version="1.1"
   id="Ebene_1"
   x="0px"
   y="0px"
   viewBox="0 0 410.51762 263.3014"
   xml:space="preserve"
   sodipodi:docname="rhea.svg"
   width="410.51761"
   height="263.30139"
   inkscape:version="0.92.1 r"><metadata
     id="metadata444"><rdf:RDF><cc:Work
         rdf:about=""><dc:format>image/svg+xml</dc:format><dc:type
           rdf:resource="http://purl.org/dc/dcmitype/StillImage" /><dc:title></dc:title></cc:Work></rdf:RDF></metadata><defs
     id="defs442" /><sodipodi:namedview
     pagecolor="#ffffff"
     bordercolor="#666666"
     borderopacity="1"
     objecttolerance="10"
     gridtolerance="10"
     guidetolerance="10"
     inkscape:pageopacity="0"
     inkscape:pageshadow="2"
     inkscape:window-width="640"
     inkscape:window-height="480"
     id="namedview440"
     showgrid="false"
     inkscape:zoom="0.79455738"
     inkscape:cx="212.46759"
     inkscape:cy="131.65139"
     inkscape:window-x="0"
     inkscape:window-y="23"
     inkscape:window-maximized="0"
     inkscape:current-layer="Ebene_1"
     inkscape:showpageshadow="true"
     borderlayer="false"
     fit-margin-top="0"
     fit-margin-left="0"
     fit-margin-right="0"
     fit-margin-bottom="0" /><style
     type="text/css"
     id="style247">
	.st0{opacity:0.9;fill:#D60B52;}
	.st1{opacity:0.6;fill:#54AA88;}
	.st2{opacity:0.6;fill:url(#SVGID_1_);}
	.st3{opacity:0.8;fill:url(#SVGID_2_);}
	.st4{fill-rule:evenodd;clip-rule:evenodd;fill:#C6C6C6;}
	.st5{fill-rule:evenodd;clip-rule:evenodd;fill:url(#SVGID_3_);}
	.st6{clip-path:url(#SVGID_5_);}
	.st7{opacity:0.9;fill:url(#SVGID_6_);}
	.st8{opacity:0.9;fill:url(#SVGID_7_);}
	.st9{opacity:0.8;fill:url(#SVGID_8_);}
	.st10{opacity:0.79;fill:url(#SVGID_9_);}
	.st11{opacity:0.8;fill:url(#SVGID_10_);}
	.st12{opacity:0.6;fill:url(#SVGID_11_);}
	.st13{opacity:0.6;fill:url(#SVGID_12_);}
	.st14{opacity:0.6;fill:url(#SVGID_13_);}
	.st15{opacity:0.6;fill:url(#SVGID_14_);}
</style><path
     class="st0"
     d="m 394.6176,172.9 h -10.7 v 0 c -8.8,0 -15.9,7.1 -15.9,15.9 0,8.8 7.1,15.9 15.9,15.9 v 0 h 10.7 c 8.8,0 15.9,-7.1 15.9,-15.9 0,-8.7 -7.1,-15.9 -15.9,-15.9 z"
     id="path249"
     inkscape:connector-curvature="0"
     style="opacity:0.9;fill:#d60b52" /><path
     class="st1"
     d="m 378.8176,87.4 h -21.6 v 0 c -8.8,0 -15.9,7.1 -15.9,15.9 0,8.8 7.1,15.9 15.9,15.9 v 0 h 21.6 c 8.8,0 15.9,-7.1 15.9,-15.9 0,-8.8 -7.1,-15.9 -15.9,-15.9 z"
     id="path251"
     inkscape:connector-curvature="0"
     style="opacity:0.6;fill:#54aa88" /><linearGradient
     id="SVGID_1_"
     gradientUnits="userSpaceOnUse"
     x1="291.7374"
     y1="182.91119"
     x2="366.89719"
     y2="182.91119"
     gradientTransform="translate(-85.182401,-166)"><stop
       offset="0"
       style="stop-color:#3AAA35"
       id="stop253" /><stop
       offset="0.3291"
       style="stop-color:#41AB34"
       id="stop255" /><stop
       offset="0.5726"
       style="stop-color:#51AE32"
       id="stop257" /><stop
       offset="0.7878"
       style="stop-color:#69B42D"
       id="stop259" /><stop
       offset="0.9866"
       style="stop-color:#86BC25"
       id="stop261" /><stop
       offset="1"
       style="stop-color:#88BD24"
       id="stop263" /></linearGradient><path
     class="st2"
     d="m 265.8176,1 h -43.3 v 0 c -8.8,0 -15.9,7.1 -15.9,15.9 0,8.8 7.1,15.9 15.9,15.9 v 0 h 43.3 c 8.8,0 15.9,-7.1 15.9,-15.9 0,-8.8 -7.1,-15.9 -15.9,-15.9 z"
     id="path266"
     inkscape:connector-curvature="0"
     style="opacity:0.6;fill:url(#SVGID_1_)" /><linearGradient
     id="SVGID_2_"
     gradientUnits="userSpaceOnUse"
     x1="390.1553"
     y1="381.37149"
     x2="443.53659"
     y2="381.37149"
     gradientTransform="translate(-85.182401,-166)"><stop
       offset="0"
       style="stop-color:#E6332A"
       id="stop268" /><stop
       offset="1"
       style="stop-color:#E94E1B"
       id="stop270" /></linearGradient><path
     class="st3"
     d="m 342.4176,199.5 h -21.6 v 0 c -8.8,0 -15.9,7.1 -15.9,15.9 0,8.8 7.1,15.9 15.9,15.9 v 0 h 21.6 c 8.8,0 15.9,-7.1 15.9,-15.9 0,-8.8 -7.1,-15.9 -15.9,-15.9 z"
     id="path273"
     inkscape:connector-curvature="0"
     style="opacity:0.8;fill:url(#SVGID_2_)" /><path
     class="st4"
     d="m 152.7176,5.1 c 8.7,2.6 10.8,13.7 9.1,21.8 -2.8,14.2 -7.9,27.3 -8.7,42.1 -0.6,10.5 -2.4,29.7 9.5,32.1 6.8,1.4 14.9,-3.5 20.9,-6 8,-3.2 14.4,-3.7 23.1,-4.5 13.9,-1.2 26.2,-1.8 38.8,4.7 11.7,6 23.7,13.4 34.1,21.3 10.3,7.9 20.9,20.3 22.2,33.7 0.2,2.5 -1.7,19.7 -7.8,16 -2,-1.2 0.4,-3.6 -1.9,-4.1 -2.7,4.2 -5.6,17.5 -12.7,17.5 -0.6,-1.1 -0.1,-2 1.4,-2.8 -4.1,-2.2 -3.8,2.7 -7.7,2.3 -7.3,-0.8 -2,-3 -3.3,-6.6 -0.5,-0.6 -8.6,-1.9 -9.8,-2.1 -8.1,-1.6 -14.1,-1.1 -22.1,0.6 -12.8,2.6 -9,0.9 -4.9,10 1.7,3.8 1.8,9.1 1.9,13.5 0.1,10.3 0.6,20.1 1.7,30.4 0.7,6.5 6.1,22.4 3.4,28.1 -3.5,7.3 -23.6,6.8 -30.1,3.5 0.9,-5.5 14.1,-2.7 17.2,-4.7 5.3,-3.5 5,-13.6 4.6,-20 -0.6,-9.7 -2.3,-21.1 -4.8,-30.4 -1.3,-4.8 -5.7,-19.1 -10.4,-21.5 -4.4,-1.2 -2.7,17.1 -3,18.3 -2.3,8 -14.7,18.8 -19.2,26.4 -3.6,6 -7.3,12 -11.1,17.9 -3,4.7 -5.6,12.8 -9.4,16.5 -2.6,2.5 -24.4,6.8 -24.7,2.1 3.3,-4.3 13.2,-5.4 17.5,-9.3 5.5,-5 11.3,-12.1 15.4,-18.4 4.6,-7 9.8,-15.3 12.3,-23.4 0.9,-2.9 0.6,-6.2 1.7,-9 0.9,-2.5 3.7,-3.8 4.5,-6.1 6.1,-16.4 -1.5,-24.7 -13.5,-28.2 -12.1,-3.5 -21.8,-11 -29.2,-19.1 -15.6,-17.1 -20.2,-39.9 -18.3,-62.8 1.2,-14.6 3.6,-29.8 7,-44 1.8,-7.4 5.7,-13.2 -0.3,-19.6 -3.6,-3.8 -12,-2.6 -14.8,-6 -0.5,-2.6 7.6,-4.6 8.8,-5.4 2,-1.1 -0.2,-2.8 2.8,-4.1 3.1,-1.2 6.5,-1 9.8,-0.7 0.8,0.2 -0.9,-0.1 0,0 z"
     id="path275"
     inkscape:connector-curvature="0"
     style="clip-rule:evenodd;fill:#c6c6c6;fill-rule:evenodd" /><linearGradient
     id="SVGID_3_"
     gradientUnits="userSpaceOnUse"
     x1="206.114"
     y1="413.51279"
     x2="318.45279"
     y2="218.93629"
     gradientTransform="translate(-85.182401,-166)"><stop
       offset="0"
       style="stop-color:#DADADA"
       id="stop277" /><stop
       offset="0.3331"
       style="stop-color:#DCDCDC"
       id="stop279" /><stop
       offset="0.5794"
       style="stop-color:#E3E3E3"
       id="stop281" /><stop
       offset="0.7973"
       style="stop-color:#EFEFEF"
       id="stop283" /><stop
       offset="0.9986"
       style="stop-color:#FFFFFF"
       id="stop285" /><stop
       offset="1"
       style="stop-color:#FFFFFF"
       id="stop287" /></linearGradient><path
     class="st5"
     d="m 149.7176,5.1 c 8.7,2.6 10.8,13.7 9.1,21.8 -2.8,14.2 -7.9,27.3 -8.7,42.1 -0.6,10.5 -2.4,29.7 9.5,32.1 6.8,1.4 14.9,-3.5 20.9,-6 8,-3.2 14.4,-3.7 23.1,-4.5 13.9,-1.2 26.2,-1.8 38.8,4.7 11.7,6 23.7,13.4 34.1,21.3 10.3,7.9 20.9,20.3 22.2,33.7 0.2,2.5 -1.7,19.7 -7.8,16 -2,-1.2 0.4,-3.6 -1.9,-4.1 -2.7,4.2 -5.6,17.5 -12.7,17.5 -0.6,-1.1 -0.1,-2 1.4,-2.8 -4.1,-2.2 -3.8,2.7 -7.7,2.3 -7.3,-0.8 -2,-3 -3.3,-6.6 -0.5,-0.6 -8.6,-1.9 -9.8,-2.1 -8.1,-1.6 -14.1,-1.1 -22.1,0.6 -12.8,2.6 -9,0.9 -4.9,10 1.7,3.8 1.8,9.1 1.9,13.5 0.1,10.3 0.6,20.1 1.7,30.4 0.7,6.5 6.1,22.4 3.4,28.1 -3.5,7.3 -23.6,6.8 -30.1,3.5 0.9,-5.5 14.1,-2.7 17.2,-4.7 5.3,-3.5 5,-13.6 4.6,-20 -0.6,-9.7 -2.3,-21.1 -4.8,-30.4 -1.3,-4.8 -5.7,-19.1 -10.4,-21.5 -4.4,-1.2 -2.7,17.1 -3,18.3 -2.3,8 -14.7,18.8 -19.2,26.4 -3.6,6 -7.3,12 -11.1,17.9 -3,4.7 -5.6,12.8 -9.4,16.5 -2.6,2.5 -24.4,6.8 -24.7,2.1 3.3,-4.3 13.2,-5.4 17.5,-9.3 5.5,-5 11.3,-12.1 15.4,-18.4 4.6,-7 9.8,-15.3 12.3,-23.4 0.9,-2.9 0.6,-6.2 1.7,-9 0.9,-2.5 3.7,-3.8 4.5,-6.1 6.1,-16.4 -1.5,-24.7 -13.5,-28.2 -12.1,-3.5 -21.8,-11 -29.2,-19.1 -15.6,-17.1 -20.2,-39.9 -18.3,-62.8 1.2,-14.6 3.6,-29.8 7,-44 1.8,-7.4 5.7,-13.2 -0.3,-19.6 -3.6,-3.8 -12,-2.6 -14.8,-6 -0.5,-2.6 7.6,-4.6 8.8,-5.4 2,-1.1 -0.2,-2.8 2.8,-4.1 3.1,-1.2 6.5,-1 9.8,-0.7 0.8,0.2 -0.9,-0.1 0,0 z"
     id="path290"
     inkscape:connector-curvature="0"
     style="clip-rule:evenodd;fill:url(#SVGID_3_);fill-rule:evenodd" /><g
     id="g437"
     transform="translate(-85.182401,-166)"><defs
       id="defs293"><path
         id="SVGID_4_"
         d="m 231.1,166 c -12.4,0 -24.8,8.2 -34.3,24.5 L 93.2,370 c -18.8,32.6 -3.4,59.3 34.3,59.3 H 334.8 510.3 V 166 Z m 145.1,166.3 c -2,-1.2 0.4,-3.6 -1.9,-4.1 -2.7,4.2 -5.6,17.5 -12.7,17.5 -0.6,-1.1 -0.1,-2 1.4,-2.8 -4.1,-2.2 -3.8,2.7 -7.7,2.3 -7.3,-0.8 -2,-3 -3.3,-6.6 -0.5,-0.6 -8.6,-1.9 -9.8,-2.1 -8.1,-1.6 -14.1,-1.1 -22.1,0.6 -12.8,2.6 -9,0.9 -4.9,10 1.7,3.8 1.8,9.1 1.9,13.5 0.1,10.3 0.6,20.1 1.7,30.4 0.7,6.5 6.1,22.4 3.4,28.1 -3.5,7.3 -23.6,6.8 -30.1,3.5 0.9,-5.5 14.1,-2.7 17.2,-4.7 5.3,-3.5 5,-13.6 4.6,-20 -0.6,-9.7 -2.3,-21.1 -4.8,-30.4 -1.3,-4.8 -5.7,-19.1 -10.4,-21.5 -4.4,-1.2 -2.7,17.1 -3,18.3 -2.3,8 -14.7,18.8 -19.2,26.4 -3.6,6 -7.3,12 -11.1,17.9 -3,4.7 -5.6,12.8 -9.4,16.5 -2.6,2.5 -24.4,6.8 -24.7,2.1 3.3,-4.3 13.2,-5.4 17.5,-9.3 5.5,-5 11.3,-12.1 15.4,-18.4 4.6,-7 9.8,-15.3 12.3,-23.4 0.9,-2.9 0.6,-6.2 1.7,-9 0.9,-2.5 3.7,-3.8 4.5,-6.1 6.1,-16.4 -1.5,-24.7 -13.5,-28.2 -12.1,-3.5 -21.8,-11 -29.2,-19.1 -15.6,-17.1 -20.2,-39.9 -18.3,-62.8 1.2,-14.6 3.6,-29.8 7,-44 1.8,-7.4 5.7,-13.2 -0.3,-19.6 -3.6,-3.8 -12,-2.6 -14.8,-6 -0.5,-2.6 7.6,-4.6 8.8,-5.4 2,-1.1 -0.2,-2.8 2.8,-4.1 3.1,-1.4 6.5,-1.2 9.8,-1 -0.8,-0.1 0.3,0.1 0.2,0.1 8.5,2.7 10.6,13.7 8.9,21.8 -2.8,14.2 -7.9,27.3 -8.7,42.1 -0.6,10.5 -2.4,29.7 9.5,32.1 6.8,1.4 14.9,-3.5 20.9,-6 8,-3.2 14.4,-3.7 23.1,-4.5 13.9,-1.2 26.2,-1.8 38.8,4.7 11.7,6 23.7,13.4 34.1,21.3 10.3,7.9 20.9,20.3 22.2,33.7 0.3,2.7 -1.6,19.9 -7.8,16.2 z"
         inkscape:connector-curvature="0" /></defs><clipPath
       id="SVGID_5_"><use
         xlink:href="#SVGID_4_"
         style="overflow:visible"
         id="use295"
         x="0"
         y="0"
         width="100%"
         height="100%" /></clipPath><g
       class="st6"
       clip-path="url(#SVGID_5_)"
       id="g435"><linearGradient
         id="SVGID_6_"
         gradientUnits="userSpaceOnUse"
         x1="18.4923"
         y1="321.87921"
         x2="411.8486"
         y2="321.87921"><stop
           offset="0.5556"
           style="stop-color:#3A2E82"
           id="stop298" /><stop
           offset="0.6243"
           style="stop-color:#522E7D"
           id="stop300" /><stop
           offset="0.7727"
           style="stop-color:#89296F"
           id="stop302" /><stop
           offset="0.988"
           style="stop-color:#D30F53"
           id="stop304" /><stop
           offset="1"
           style="stop-color:#D60B52"
           id="stop306" /></linearGradient><path
         class="st7"
         d="M 395.9,306 H 18.5 v 31.8 h 377.4 c 8.8,0 15.9,-7.1 15.9,-15.9 0,-8.8 -7.1,-15.9 -15.9,-15.9 z"
         id="path309"
         inkscape:connector-curvature="0"
         style="opacity:0.9;fill:url(#SVGID_6_)" /><linearGradient
         id="SVGID_7_"
         gradientUnits="userSpaceOnUse"
         x1="18.4923"
         y1="353.69629"
         x2="439.29999"
         y2="353.69629"><stop
           offset="0"
           style="stop-color:#ED7004"
           id="stop311" /><stop
           offset="1.630664e-02"
           style="stop-color:#EC6D0F"
           id="stop313" /><stop
           offset="0.1553"
           style="stop-color:#E55631"
           id="stop315" /><stop
           offset="0.3006"
           style="stop-color:#DF4141"
           id="stop317" /><stop
           offset="0.4518"
           style="stop-color:#DB304A"
           id="stop319" /><stop
           offset="0.6116"
           style="stop-color:#D9204E"
           id="stop321" /><stop
           offset="0.7855"
           style="stop-color:#D71251"
           id="stop323" /><stop
           offset="1"
           style="stop-color:#D60B52"
           id="stop325" /></linearGradient><path
         class="st8"
         d="M 423.4,337.8 H 18.5 v 31.8 h 404.9 c 8.8,0 15.9,-7.1 15.9,-15.9 0,-8.8 -7.1,-15.9 -15.9,-15.9 z"
         id="path328"
         inkscape:connector-curvature="0"
         style="opacity:0.9;fill:url(#SVGID_7_)" /><linearGradient
         id="SVGID_8_"
         gradientUnits="userSpaceOnUse"
         x1="18.4923"
         y1="380.69031"
         x2="374.59561"
         y2="380.69031"><stop
           offset="0"
           style="stop-color:#E6332A"
           id="stop330" /><stop
           offset="1"
           style="stop-color:#E94E1B"
           id="stop332" /></linearGradient><path
         class="st9"
         d="M 358.7,364.8 H 18.5 v 31.8 h 340.2 c 8.8,0 15.9,-7.1 15.9,-15.9 0,-8.8 -7.1,-15.9 -15.9,-15.9 z"
         id="path335"
         inkscape:connector-curvature="0"
         style="opacity:0.8;fill:url(#SVGID_8_)" /><linearGradient
         id="SVGID_9_"
         gradientUnits="userSpaceOnUse"
         x1="18.4923"
         y1="412.50739"
         x2="393.52469"
         y2="412.50739"><stop
           offset="0"
           style="stop-color:#E6332A"
           id="stop337" /><stop
           offset="1"
           style="stop-color:#F39200"
           id="stop339" /></linearGradient><path
         class="st10"
         d="M 377.6,396.6 H 18.5 v 31.8 h 359.1 c 8.8,0 15.9,-7.1 15.9,-15.9 0,-8.8 -7.1,-15.9 -15.9,-15.9 z"
         id="path342"
         inkscape:connector-curvature="0"
         style="opacity:0.79000005;fill:url(#SVGID_9_)" /><linearGradient
         id="SVGID_10_"
         gradientUnits="userSpaceOnUse"
         x1="18.4923"
         y1="290.0621"
         x2="427.19589"
         y2="290.0621"><stop
           offset="0"
           style="stop-color:#0070B4"
           id="stop344" /><stop
           offset="0.1677"
           style="stop-color:#005EA5"
           id="stop346" /><stop
           offset="0.3355"
           style="stop-color:#044E98"
           id="stop348" /><stop
           offset="0.5036"
           style="stop-color:#29408D"
           id="stop350" /><stop
           offset="0.6707"
           style="stop-color:#333686"
           id="stop352" /><stop
           offset="0.8366"
           style="stop-color:#383083"
           id="stop354" /><stop
           offset="1"
           style="stop-color:#3A2E82"
           id="stop356" /></linearGradient><path
         class="st11"
         d="M 411.3,274.2 H 18.5 V 306 h 392.8 c 8.8,0 15.9,-7.1 15.9,-15.9 0,-8.8 -7.1,-15.9 -15.9,-15.9 z"
         id="path359"
         inkscape:connector-curvature="0"
         style="opacity:0.8;fill:url(#SVGID_10_)" /><linearGradient
         id="SVGID_11_"
         gradientUnits="userSpaceOnUse"
         x1="18.4923"
         y1="236.1218"
         x2="358.43369"
         y2="236.1218"><stop
           offset="0"
           style="stop-color:#0070B4"
           id="stop361" /><stop
           offset="0.1788"
           style="stop-color:#0070B3"
           id="stop363" /><stop
           offset="0.3112"
           style="stop-color:#0072B0"
           id="stop365" /><stop
           offset="0.4286"
           style="stop-color:#0074AB"
           id="stop367" /><stop
           offset="0.5374"
           style="stop-color:#0077A2"
           id="stop369" /><stop
           offset="0.6402"
           style="stop-color:#007A96"
           id="stop371" /><stop
           offset="0.7386"
           style="stop-color:#007F85"
           id="stop373" /><stop
           offset="0.8335"
           style="stop-color:#00836F"
           id="stop375" /><stop
           offset="0.9231"
           style="stop-color:#008852"
           id="stop377" /><stop
           offset="1"
           style="stop-color:#008D36"
           id="stop379" /></linearGradient><path
         class="st12"
         d="M 342.5,220.2 H 18.5 V 252 h 324 c 8.8,0 15.9,-7.1 15.9,-15.9 0,-8.8 -7.1,-15.9 -15.9,-15.9 z"
         id="path382"
         inkscape:connector-curvature="0"
         style="opacity:0.6;fill:url(#SVGID_11_)" /><linearGradient
         id="SVGID_12_"
         gradientUnits="userSpaceOnUse"
         x1="18.4923"
         y1="267.6933"
         x2="389.616"
         y2="267.6933"><stop
           offset="0"
           style="stop-color:#0070B4"
           id="stop384" /><stop
           offset="0.1788"
           style="stop-color:#0070B3"
           id="stop386" /><stop
           offset="0.3112"
           style="stop-color:#0072B0"
           id="stop388" /><stop
           offset="0.4286"
           style="stop-color:#0074AB"
           id="stop390" /><stop
           offset="0.5374"
           style="stop-color:#0077A2"
           id="stop392" /><stop
           offset="0.6402"
           style="stop-color:#007A96"
           id="stop394" /><stop
           offset="0.7386"
           style="stop-color:#007F85"
           id="stop396" /><stop
           offset="0.8335"
           style="stop-color:#00836F"
           id="stop398" /><stop
           offset="0.9231"
           style="stop-color:#008852"
           id="stop400" /><stop
           offset="1"
           style="stop-color:#008D36"
           id="stop402" /></linearGradient><path
         class="st13"
         d="M 373.7,251.8 H 18.5 v 31.8 h 355.2 c 8.8,0 15.9,-7.1 15.9,-15.9 0,-8.8 -7.1,-15.9 -15.9,-15.9 z"
         id="path405"
         inkscape:connector-curvature="0"
         style="opacity:0.6;fill:url(#SVGID_12_)" /><linearGradient
         id="SVGID_13_"
         gradientUnits="userSpaceOnUse"
         x1="18.4923"
         y1="213.5524"
         x2="301.76959"
         y2="213.5524"><stop
           offset="0"
           style="stop-color:#099270"
           id="stop407" /><stop
           offset="0.3469"
           style="stop-color:#069373"
           id="stop409" /><stop
           offset="0.6036"
           style="stop-color:#00967B"
           id="stop411" /><stop
           offset="0.8304"
           style="stop-color:#009B8A"
           id="stop413" /><stop
           offset="1"
           style="stop-color:#00A19A"
           id="stop415" /></linearGradient><path
         class="st14"
         d="M 285.9,197.6 H 18.5 v 31.8 h 267.4 c 8.8,0 15.9,-7.1 15.9,-15.9 0,-8.7 -7.2,-15.9 -15.9,-15.9 z"
         id="path418"
         inkscape:connector-curvature="0"
         style="opacity:0.6;fill:url(#SVGID_13_)" /><linearGradient
         id="SVGID_14_"
         gradientUnits="userSpaceOnUse"
         x1="18.4923"
         y1="181.8902"
         x2="269.7915"
         y2="181.8902"><stop
           offset="0"
           style="stop-color:#3AAA35"
           id="stop420" /><stop
           offset="0.3291"
           style="stop-color:#41AB34"
           id="stop422" /><stop
           offset="0.5726"
           style="stop-color:#51AE32"
           id="stop424" /><stop
           offset="0.7878"
           style="stop-color:#69B42D"
           id="stop426" /><stop
           offset="0.9866"
           style="stop-color:#86BC25"
           id="stop428" /><stop
           offset="1"
           style="stop-color:#88BD24"
           id="stop430" /></linearGradient><path
         class="st15"
         d="M 253.9,166 H 18.5 v 31.8 h 235.4 c 8.8,0 15.9,-7.1 15.9,-15.9 0,-8.8 -7.1,-15.9 -15.9,-15.9 z"
         id="path433"
         inkscape:connector-curvature="0"
         style="opacity:0.6;fill:url(#SVGID_14_)" /></g></g></svg>