<?xml version="1.0" encoding="UTF-8" standalone="no"?>
<svg
   xmlns:dc="http://purl.org/dc/elements/1.1/"
   xmlns:cc="http://creativecommons.org/ns#"
   xmlns:rdf="http://www.w3.org/1999/02/22-rdf-syntax-ns#"
   xmlns:svg="http://www.w3.org/2000/svg"
   xmlns="http://www.w3.org/2000/svg"
   xmlns:sodipodi="http://sodipodi.sourceforge.net/DTD/sodipodi-0.dtd"
   xmlns:inkscape="http://www.inkscape.org/namespaces/inkscape"
   viewBox="0 0 390.2674 249.52359"
   height="249.52359"
   width="390.2674"
   xml:space="preserve"
   id="svg29"
   version="1.1"
   sodipodi:docname="StructureForTaskEffectiveness.svg"
   inkscape:version="0.92.1 r"><sodipodi:namedview
     pagecolor="#ffffff"
     bordercolor="#666666"
     borderopacity="1"
     objecttolerance="10"
     gridtolerance="10"
     guidetolerance="10"
     inkscape:pageopacity="0"
     inkscape:pageshadow="2"
     inkscape:window-width="640"
     inkscape:window-height="480"
     id="namedview82"
     showgrid="false"
     fit-margin-top="0"
     fit-margin-left="0"
     fit-margin-right="0"
     fit-margin-bottom="0"
     inkscape:zoom="0.59594203"
     inkscape:cx="199.51542"
     inkscape:cy="117.50546"
     inkscape:window-x="0"
     inkscape:window-y="23"
     inkscape:window-maximized="0"
     inkscape:current-layer="svg29" /><metadata
     id="metadata35"><rdf:RDF><cc:Work
         rdf:about=""><dc:format>image/svg+xml</dc:format><dc:type
           rdf:resource="http://purl.org/dc/dcmitype/StillImage" /><dc:title></dc:title></cc:Work></rdf:RDF></metadata><defs
     id="defs33"><clipPath
       id="clipPath45"
       clipPathUnits="userSpaceOnUse"><path
         id="path43"
         d="M 0,595.276 H 419.528 V 0 H 0 Z"
         inkscape:connector-curvature="0" /></clipPath></defs><g
     transform="matrix(1.3333333,0,0,-1.3333333,-80.169917,528.86878)"
     id="g37"><g
       id="g39"><g
         clip-path="url(#clipPath45)"
         id="g41"><path
           id="path47"
           style="fill:none;stroke:#110f0d;stroke-width:3;stroke-linecap:butt;stroke-linejoin:miter;stroke-miterlimit:4;stroke-dasharray:none;stroke-opacity:1"
           d="m 61.496,363.528 c 0,0 13.156,29.322 29.097,26.689 7.268,-1.2 7.742,-2.629 6.239,-63.528 0,0 -1.504,-83.828 16.31,-106.009 46.404,-57.774 32.248,161.826 70.149,171.418 23.763,6.015 20.299,-84.956 20.299,-84.956 0,0 4.064,-85.894 21.248,-89.468 23.485,-4.887 27.996,20.676 31.463,73.303 1.152,17.48 -1.221,106.533 37.508,104.128 24.205,-1.503 30.826,-115.406 30.826,-115.406"
           inkscape:connector-curvature="0" /><path
           id="path49"
           style="fill:#110f0d;fill-opacity:1;fill-rule:nonzero;stroke:none"
           d="m 128.784,329.696 c 0,-7.473 -6.059,-13.533 -13.533,-13.533 H 76.908 c -7.474,0 -13.533,6.06 -13.533,13.533 v 0.751 c 0,7.474 6.059,13.533 13.533,13.533 h 38.343 c 7.474,0 13.533,-6.059 13.533,-13.533 z"
           inkscape:connector-curvature="0" /><path
           id="path51"
           style="fill:#110f0d;fill-opacity:1;fill-rule:nonzero;stroke:none"
           d="m 128.784,295.111 c 0,-7.472 -6.059,-13.533 -13.533,-13.533 H 76.908 c -7.474,0 -13.533,6.061 -13.533,13.533 v 0.752 c 0,7.473 6.059,13.533 13.533,13.533 h 38.343 c 7.474,0 13.533,-6.06 13.533,-13.533 z"
           inkscape:connector-curvature="0" /><path
           id="path53"
           style="fill:#110f0d;fill-opacity:1;fill-rule:nonzero;stroke:none"
           d="m 234.79,329.696 c 0,-7.473 -6.058,-13.533 -13.532,-13.533 h -38.343 c -7.474,0 -13.533,6.06 -13.533,13.533 v 0.751 c 0,7.474 6.059,13.533 13.533,13.533 h 38.343 c 7.474,0 13.532,-6.059 13.532,-13.533 z"
           inkscape:connector-curvature="0" /><path
           id="path55"
           style="fill:#110f0d;fill-opacity:1;fill-rule:nonzero;stroke:none"
           d="m 352.828,329.696 c 0,-7.473 -6.057,-13.533 -13.533,-13.533 h -38.343 c -7.473,0 -13.533,6.06 -13.533,13.533 v 0.751 c 0,7.474 6.06,13.533 13.533,13.533 h 38.343 c 7.476,0 13.533,-6.059 13.533,-13.533 z"
           inkscape:connector-curvature="0" /><path
           id="path57"
           style="fill:#110f0d;fill-opacity:1;fill-rule:nonzero;stroke:none"
           d="m 234.79,295.111 c 0,-7.472 -6.058,-13.533 -13.532,-13.533 h -38.343 c -7.474,0 -13.533,6.061 -13.533,13.533 v 0.752 c 0,7.473 6.059,13.533 13.533,13.533 h 38.343 c 7.474,0 13.532,-6.06 13.532,-13.533 z"
           inkscape:connector-curvature="0" /><path
           id="path59"
           style="fill:#110f0d;fill-opacity:1;fill-rule:nonzero;stroke:none"
           d="m 128.784,260.527 c 0,-7.472 -6.059,-13.531 -13.533,-13.531 H 76.908 c -7.474,0 -13.533,6.059 -13.533,13.531 v 0.752 c 0,7.473 6.059,13.534 13.533,13.534 h 38.343 c 7.474,0 13.533,-6.061 13.533,-13.534 z"
           inkscape:connector-curvature="0" /><path
           id="path61"
           style="fill:#110f0d;fill-opacity:1;fill-rule:nonzero;stroke:none"
           d="m 315.236,280.545 h 20.299 l -10.431,-14.096 z"
           inkscape:connector-curvature="0" /></g></g></g></svg>